# xmcd
#
# Track frame offsets: 
#        150
#        21239
#        38165
#        53864
#        62585
#        78592
#        97401
#        112691
#        126177
#        139175
#        152012
#        171738
#        185245
#        196321
#
# Disc length: 2809 seconds
#
# Revision: 0
# Processed by: cddbd v1.4PL0 Copyright (c) Steve Scherf et al.
# Submitted via: ExactAudioCopy v0.90a11
#
DISCID=cb0af70e
DTITLE=Hank Williams, III - Lovesick Broke And Driftin'
DYEAR=1900
DGENRE=
TTITLE0=Atlantic City
TTITLE1=Long Gone Daddy
TTITLE2=7 Long Months And 39 Days
TTITLE3=Lovin' And Huggin'
TTITLE4=Cecil Brown
TTITLE5=Whiskey, Weed, And Women
TTITLE6=Mississippi Mud
TTITLE7=Sun Comes Up
TTITLE8=One Horse Town
TTITLE9=Nighttime Rambling Man
TTITLE10=5 Shots Of Whiskey
TTITLE11=Walkin' With Sorrow
TTITLE12=Lovesick Broke And Driftin'
TTITLE13=Callin' Your Name
EXTD=
EXTT0=
EXTT1=
EXTT2=
EXTT3=
EXTT4=
EXTT5=
EXTT6=
EXTT7=
EXTT8=
EXTT9=
EXTT10=
EXTT11=
EXTT12=
EXTT13=
PLAYORDER=
